<svg xmlns="http://www.w3.org/2000/svg" viewBox="0 0 400 400" width="100%" height="100%">
  <defs>
    <linearGradient id="bg-rt" x1="0%" y1="0%" x2="100%" y2="100%">
      <stop offset="0%" stop-color="#F5F9FC"/>
      <stop offset="100%" stop-color="#EBF3F9"/>
    </linearGradient>
  </defs>
  
  <!-- Background Card -->
  <rect width="400" height="400" rx="36" fill="url(#bg-rt)"/>
  
  <!-- Subtle Badge Circle -->
  <circle cx="200" cy="180" r="100" fill="#DCEBFA" opacity="0.6"/>
  <circle cx="200" cy="180" r="80" fill="#FFFFFF" opacity="0.9"/>
  
  <!-- House / Home Contour -->
  <path d="M145 185 L200 135 L255 185 V235 C255 240.5 250.5 245 245 245 H155 C149.5 245 145 240.5 145 235 Z" fill="none" stroke="#0284C7" stroke-width="8" stroke-linecap="round" stroke-linejoin="round"/>
  
  <!-- Door -->
  <rect x="185" y="200" width="30" height="45" rx="4" fill="#38BDF8" stroke="#0284C7" stroke-width="6"/>
  
  <!-- Window / Sparkle -->
  <path d="M225 155 L230 145 L235 155 L245 160 L235 165 L230 175 L225 165 L215 160 Z" fill="#F59E0B"/>
  
  <!-- Label -->
  <rect x="100" y="305" width="200" height="34" rx="17" fill="#0284C7" opacity="0.1"/>
  <text x="200" y="327" font-family="system-ui, -apple-system, sans-serif" font-size="13" font-weight="700" fill="#0284C7" text-anchor="middle" letter-spacing="0.5">
    RUMAH TANGGA
  </text>
</svg>
